<svg id="visual" viewBox="0 0 900 100" width="900" height="100" xmlns="http://www.w3.org/2000/svg" xmlns:xlink="http://www.w3.org/1999/xlink" version="1.1"><rect x="0" y="0" width="900" height="100" fill="#17191E"></rect><path d="M0 79L21.5 76.5C43 74 86 69 128.8 69.8C171.7 70.7 214.3 77.3 257.2 79.3C300 81.3 343 78.7 385.8 76.3C428.7 74 471.3 72 514.2 72.8C557 73.7 600 77.3 642.8 76.7C685.7 76 728.3 71 771.2 69.5C814 68 857 70 878.5 71L900 72L900 101L878.5 101C857 101 814 101 771.2 101C728.3 101 685.7 101 642.8 101C600 101 557 101 514.2 101C471.3 101 428.7 101 385.8 101C343 101 300 101 257.2 101C214.3 101 171.7 101 128.8 101C86 101 43 101 21.5 101L0 101Z" fill="#04121F"></path></svg>