<svg id="visual" viewBox="0 0 900 100" width="900" height="100" xmlns="http://www.w3.org/2000/svg" xmlns:xlink="http://www.w3.org/1999/xlink" version="1.1"><rect x="0" y="0" width="900" height="100" fill="#16191E"></rect><path d="M0 21L21.5 22.5C43 24 86 27 128.8 26.8C171.7 26.7 214.3 23.3 257.2 23.5C300 23.7 343 27.3 385.8 27.8C428.7 28.3 471.3 25.7 514.2 22.5C557 19.3 600 15.7 642.8 15.2C685.7 14.7 728.3 17.3 771.2 21.3C814 25.3 857 30.7 878.5 33.3L900 36L900 0L878.5 0C857 0 814 0 771.2 0C728.3 0 685.7 0 642.8 0C600 0 557 0 514.2 0C471.3 0 428.7 0 385.8 0C343 0 300 0 257.2 0C214.3 0 171.7 0 128.8 0C86 0 43 0 21.5 0L0 0Z" fill="#04121F"></path></svg>